<svg xmlns="http://www.w3.org/2000/svg" width="50" height="50" viewBox="0 0 50 50" fill="none">
  <path d="M16.6663 19.7917C15.2281 19.7917 14.0622 20.9576 14.0622 22.3959C14.0622 23.8341 15.2281 25 16.6663 25C18.1046 25 19.2705 23.8341 19.2705 22.3959C19.2705 20.9576 18.1046 19.7917 16.6663 19.7917Z" fill="black"/>
  <path d="M24.9997 19.7917C23.5614 19.7917 22.3955 20.9576 22.3955 22.3959C22.3955 23.8341 23.5614 25 24.9997 25C26.4379 25 27.6038 23.8341 27.6038 22.3959C27.6038 20.9576 26.4379 19.7917 24.9997 19.7917Z" fill="black"/>
  <path d="M30.7288 22.3959C30.7288 20.9576 31.8948 19.7917 33.333 19.7917C34.7712 19.7917 35.9372 20.9576 35.9372 22.3959C35.9372 23.8341 34.7712 25 33.333 25C31.8948 25 30.7288 23.8341 30.7288 22.3959Z" fill="black"/>
  <path fill-rule="evenodd" clip-rule="evenodd" d="M33.5429 9.56833C27.93 9.08967 22.2877 9.06189 16.6704 9.48526L16.2678 9.51561C10.9109 9.91935 6.77051 14.3836 6.77051 19.7557V37.5C6.77051 38.0498 7.05939 38.559 7.53123 38.8411C8.00307 39.1232 8.58844 39.1366 9.07267 38.8764L17.2202 34.4978C17.5991 34.2941 18.0227 34.1875 18.4529 34.1875H37.1538C39.5123 34.1875 41.5335 32.5013 41.9563 30.181C42.8131 25.4784 42.8808 20.666 42.1566 15.9412L41.9432 14.5488C41.5546 12.0139 39.4809 10.0747 36.9256 9.85682L33.5429 9.56833ZM16.9053 12.6014C22.356 12.1906 27.8309 12.2176 33.2773 12.682L36.6601 12.9705C37.7775 13.0658 38.6843 13.9138 38.8542 15.0223L39.0676 16.4146C39.7393 20.7965 39.6765 25.2596 38.8819 29.6208C38.7298 30.4557 38.0025 31.0625 37.1538 31.0625H18.4529C17.5064 31.0625 16.5746 31.297 15.7408 31.7451L9.89551 34.8865V19.7557C9.89551 16.0184 12.776 12.9126 16.5027 12.6318L16.9053 12.6014Z" fill="black"/>
</svg>