<svg width="37" height="38" viewBox="0 0 37 38" fill="none" xmlns="http://www.w3.org/2000/svg">
<path fill-rule="evenodd" clip-rule="evenodd" d="M3.70752 19.375C3.70752 10.9081 10.3346 4.04431 18.5096 4.04431C26.6846 4.04431 33.3117 10.9081 33.3117 19.375C33.3117 19.4463 33.3162 19.5164 33.325 19.5851C33.3184 19.6514 33.3158 19.7188 33.3174 19.7871C33.3299 20.3254 33.2634 21.1607 33.0926 21.9588C32.9067 22.8284 32.6645 23.3281 32.5227 23.4821C31.9064 24.152 31.0583 24.5408 30.1651 24.5631C29.2719 24.5854 28.4068 24.2392 27.76 23.6008C27.3371 23.1834 27.2158 22.5709 27.1828 21.1474L26.947 11.0013C26.9267 10.1257 26.2248 9.43293 25.3794 9.45401C24.5339 9.47508 23.865 10.202 23.8854 11.0776L23.9194 12.5423C22.4472 11.2904 20.5631 10.5389 18.5096 10.5389C13.7979 10.5389 9.97832 14.4949 9.97832 19.3749C9.97832 24.2548 13.7979 28.2108 18.5096 28.2108C21.1115 28.2108 23.4414 27.0044 25.0062 25.1022C25.1816 25.3788 25.3928 25.6459 25.6472 25.897C26.882 27.1158 28.5336 27.7766 30.2388 27.7341C31.944 27.6916 33.563 26.9492 34.7397 25.6704C35.4945 24.85 35.8765 23.6088 36.0827 22.6448C36.3041 21.6093 36.3978 20.5181 36.379 19.7108C36.3777 19.6527 36.3733 19.5953 36.3661 19.5389C36.3715 19.4851 36.3742 19.4304 36.3742 19.375C36.3742 9.15634 28.3759 0.872437 18.5096 0.872437C8.64327 0.872437 0.64502 9.15634 0.64502 19.375C0.64502 29.5938 8.64327 37.8776 18.5096 37.8776C22.6808 37.8776 26.5219 36.3951 29.5624 33.9121C30.2265 33.3698 30.3404 32.3726 29.8168 31.6848C29.2932 30.997 28.3303 30.879 27.6663 31.4213C25.1466 33.4789 21.9686 34.7058 18.5096 34.7058C10.3346 34.7058 3.70752 27.842 3.70752 19.375ZM18.5096 13.7108C15.4893 13.7108 13.0408 16.2467 13.0408 19.3749C13.0408 22.5031 15.4893 25.0389 18.5096 25.0389C21.5299 25.0389 23.9783 22.5031 23.9783 19.3749C23.9783 16.2467 21.5299 13.7108 18.5096 13.7108Z" fill="black"/>
</svg>
