<svg xmlns="http://www.w3.org/2000/svg" width="50" height="50" viewBox="0 0 50 50" fill="none">
  <path fill-rule="evenodd" clip-rule="evenodd" d="M17.1878 18.75C17.1878 14.4353 20.6856 10.9375 25.0003 10.9375C29.3151 10.9375 32.8128 14.4353 32.8128 18.75C32.8128 23.0647 29.3151 26.5625 25.0003 26.5625C20.6856 26.5625 17.1878 23.0647 17.1878 18.75ZM25.0003 14.0625C22.4115 14.0625 20.3128 16.1612 20.3128 18.75C20.3128 21.3388 22.4115 23.4375 25.0003 23.4375C27.5892 23.4375 29.6878 21.3388 29.6878 18.75C29.6878 16.1612 27.5892 14.0625 25.0003 14.0625Z" fill="black"/>
  <path fill-rule="evenodd" clip-rule="evenodd" d="M11.3678 16.9317C11.9382 10.0126 17.7202 4.6875 24.6629 4.6875H25.3378C32.2804 4.6875 38.0625 10.0126 38.6328 16.9317C38.9385 20.6406 37.7929 24.3234 35.4372 27.2044L27.948 36.3635C26.4245 38.2266 23.5761 38.2266 22.0527 36.3635L14.5635 27.2044C12.2078 24.3234 11.0621 20.6406 11.3678 16.9317ZM24.6629 7.8125C19.3466 7.8125 14.919 11.8901 14.4823 17.1885C14.2431 20.0905 15.1395 22.9721 16.9827 25.2263L24.4719 34.3853C24.745 34.7194 25.2557 34.7194 25.5288 34.3853L33.018 25.2263C34.8612 22.9721 35.7576 20.0905 35.5184 17.1885C35.0817 11.8901 30.6541 7.8125 25.3378 7.8125H24.6629Z" fill="black"/>
  <path d="M15.9812 34.0321C16.3671 33.2603 16.0543 32.3217 15.2824 31.9358C14.5106 31.5499 13.572 31.8627 13.1861 32.6346L9.01945 40.9679C8.77727 41.4522 8.80315 42.0275 9.08785 42.4881C9.37255 42.9488 9.87547 43.2292 10.417 43.2292H39.5837C40.1252 43.2292 40.6281 42.9488 40.9128 42.4881C41.1975 42.0275 41.2234 41.4522 40.9812 40.9679L36.8145 32.6346C36.4286 31.8627 35.4901 31.5499 34.7182 31.9358C33.9464 32.3217 33.6335 33.2603 34.0195 34.0321L37.0555 40.1042H12.9452L15.9812 34.0321Z" fill="black"/>
</svg>