<svg width="277" height="165" viewBox="0 0 277 165" fill="none" xmlns="http://www.w3.org/2000/svg">
<path d="M149.497 115.945C149.846 117.164 149.148 118.384 147.926 118.732C146.791 119.08 145.482 118.384 145.133 117.164L114.85 11.1575L84.6539 117.164C84.3048 118.384 82.9957 119.08 81.7739 118.732C80.6394 118.384 79.9412 117.164 80.2903 115.945L112.668 2.27281C112.93 1.57597 113.453 0.966239 114.239 0.704924C115.461 0.356505 116.77 1.05334 117.119 2.27281L149.497 115.945Z" fill="#22356F"/>
<path d="M188.681 59.6746C188.681 60.8941 187.721 61.9394 186.412 61.9394C185.19 61.9394 184.143 60.8941 184.143 59.6746C184.143 57.1486 183.096 54.7968 181.438 53.0547C179.692 51.3997 177.423 50.3544 174.805 50.3544C172.187 50.3544 170.005 51.2255 168.434 52.7933C166.863 54.2741 165.991 56.4517 165.991 58.9778C165.991 60.807 166.689 62.9846 168.521 64.988C170.005 66.643 172.274 68.1238 175.416 69.0819C180.129 70.5627 184.492 72.6532 187.547 75.7019C190.339 78.4893 191.998 81.8864 191.998 86.1545C191.91 91.2066 190.078 95.3876 187.11 98.3492C183.969 101.485 179.605 103.314 174.805 103.314C170.092 103.314 165.816 101.398 162.674 98.2621C159.533 95.1263 157.613 90.8582 157.613 86.1545C157.613 84.8479 158.66 83.8898 159.882 83.8898C161.191 83.8898 162.238 84.8479 162.238 86.1545C162.238 89.6387 163.634 92.7745 165.903 95.0392C168.172 97.3039 171.314 98.6976 174.805 98.6976C178.383 98.6976 181.612 97.4781 183.881 95.1263C186.063 92.9487 187.372 89.8129 187.459 86.1545C187.459 83.1929 186.325 80.8411 184.405 78.9248C181.874 76.4859 178.121 74.6567 174.107 73.4372C170.092 72.2177 167.125 70.2143 165.118 67.9496C162.5 65.1622 161.365 61.8522 161.365 58.9778C161.365 55.1452 162.849 51.9223 165.205 49.5705C167.649 47.2186 170.965 45.825 174.805 45.825C178.645 45.825 182.136 47.3928 184.667 49.9189C187.11 52.3578 188.681 55.842 188.681 59.6746Z" fill="#22356F"/>
<path d="M202.209 52.7936C200.9 52.7936 199.94 51.7484 199.94 50.5289C199.94 49.3094 200.9 48.2642 202.209 48.2642H247.416C248.725 48.2642 249.685 49.3094 249.685 50.5289C249.685 51.7484 248.725 52.7936 247.416 52.7936H227.081V100.179C227.081 101.398 226.034 102.443 224.812 102.443C223.591 102.443 222.543 101.398 222.543 100.179V52.7936H202.209Z" fill="#22356F"/>
<path d="M4.53812 100.178C4.53812 101.485 3.49086 102.443 2.26906 102.443C0.959987 102.443 0 101.398 0 100.178L0.610901 48.0897C0.610901 46.8702 1.65816 45.825 2.87996 45.825C3.75268 45.9121 4.45085 46.3476 4.79994 46.9573L33.5996 95.6489L61.7883 46.9573C62.3992 45.9121 63.7955 45.5636 64.93 46.1734C65.6282 46.6089 66.0646 47.3928 65.9773 48.2639V100.178C65.9773 101.398 65.0173 102.443 63.7082 102.443C62.4864 102.443 61.5265 101.398 61.5265 100.178V56.5388L35.6068 101.224C35.4323 101.572 35.1704 101.92 34.7341 102.095C33.6868 102.792 32.2905 102.443 31.6796 101.311L5.06175 56.2775L4.53812 100.178Z" fill="#22356F"/>
<path fill-rule="evenodd" clip-rule="evenodd" d="M272.985 83.4542C272.985 83.6284 273.247 84.935 273.335 86.4158C273.422 87.9837 273.422 89.9871 273.16 91.6421C272.811 93.7326 272.025 95.8231 270.542 97.391C268.796 99.2202 266.091 100.091 263.647 100.091C261.204 100.091 258.673 99.2202 256.927 97.4781C255.357 95.9102 254.746 93.8197 254.746 91.6421C254.746 90.4226 255.007 89.2032 255.357 88.1579C256.229 85.9803 258.149 85.1963 260.331 85.2834C261.378 85.3705 263.298 85.5448 264.084 86.3287C265.044 87.4611 264.869 89.6387 264.433 90.771C264.433 90.9453 264.258 91.4679 263.56 91.555C263.211 91.555 262.338 91.555 261.902 91.3808C261.64 91.3808 261.553 91.0324 261.553 90.771C261.553 90.2484 261.902 89.6387 261.902 89.2032C261.902 88.9418 261.727 88.7676 261.466 88.6805C260.942 88.5063 259.546 88.0708 258.847 89.0289C258.586 89.3774 258.237 90.5968 258.324 91.4679C258.498 92.6002 259.109 93.3842 259.72 93.8197C260.418 94.2552 261.553 94.5166 262.687 94.6037C263.996 94.6908 265.393 94.4295 266.178 93.8197C267.749 92.6002 268.011 91.2066 268.185 89.3774C268.535 86.3287 267.226 83.4542 264.084 82.409C259.458 80.6669 253.873 81.7121 251.953 86.7642C250.208 91.2066 250.818 96.6071 254.222 100.091C257.887 103.924 264.258 104.534 268.971 102.704C272.462 101.311 274.731 98.8718 275.953 95.3876C276.651 93.3842 276.913 91.2937 277 89.2032C277 88.1579 276.913 87.1997 276.913 86.4158C276.825 85.6319 276.651 84.6737 276.564 84.064C276.476 83.6284 276.127 83.6284 276.04 83.5413L273.771 83.1058C273.509 83.0187 273.073 83.0187 272.985 83.4542Z" fill="#22356F"/>
<path d="M0.242012 138.842H103.037V164.203H0V138.842H0.242012ZM102.492 139.388H0.544528V163.657H102.492V139.388Z" fill="#22356F"/>
<path d="M87.9713 145.698C88.2738 146.426 88.9999 146.972 90.0284 146.972C91.057 146.972 91.7225 146.426 92.025 145.698L91.057 145.273C90.8149 145.88 90.1494 145.941 90.0284 145.941C89.9074 145.941 89.2419 145.88 88.9999 145.273L87.9713 145.698ZM86.7007 147.7V155.345H87.7293L91.8435 150.127V155.224H93.3561V147.518H92.3275L88.1528 152.736V147.7H86.7007ZM78.4118 147.7V155.345H79.3799L83.5546 150.127V155.224H85.0067V147.518H83.9781L79.8639 152.736V147.7H78.4118ZM72.664 147.7H71.212V155.224H72.664V152.008L72.8455 151.826L75.5077 155.224H77.4438L74.1161 151.159L77.3228 147.7H75.4472L72.664 150.855V147.7ZM69.8809 153.222C69.4574 153.707 68.7918 154.01 68.1263 154.01C66.8557 154.01 65.5852 153.161 65.5852 151.462C65.5852 150.067 66.5532 148.853 68.0658 148.853C68.3078 148.853 69.1548 148.914 69.8809 149.703V147.943C69.1548 147.579 68.5498 147.518 68.0053 147.518C66.9767 147.518 66.0087 147.761 65.2826 148.489C64.6171 149.096 64.0726 150.067 64.0726 151.462C64.0726 152.554 64.3751 153.464 65.2826 154.314C65.8877 154.92 66.6742 155.345 68.0053 155.345C68.8523 155.345 69.4574 155.163 69.8809 154.92V153.222ZM57.3567 145.698C57.6593 146.426 58.3853 146.972 59.4139 146.972C60.4424 146.972 61.1079 146.426 61.4105 145.698L60.4424 145.273C60.2004 145.88 59.5349 145.941 59.4139 145.941C59.2928 145.941 58.6273 145.88 58.3853 145.273L57.3567 145.698ZM56.0862 147.7V155.345H57.1147L61.2289 150.127V155.224H62.7415V147.518H61.713L57.5383 152.736V147.7H56.0862Z" fill="#22356F"/>
<path d="M36.6648 147.761V155.284H38.1169V149.035H41.142V155.284H42.5941V147.761H36.6648ZM31.28 154.132C29.8279 154.132 28.7994 153.1 28.7994 151.583C28.7994 150.006 29.8279 148.974 31.28 148.974C32.7926 148.974 33.8211 150.006 33.8211 151.583C33.8211 153.1 32.7926 154.132 31.28 154.132ZM31.28 147.64C28.9204 147.64 27.2868 149.278 27.2868 151.583C27.2868 153.828 28.9204 155.467 31.28 155.467C33.7001 155.467 35.3337 153.828 35.3337 151.583C35.3337 149.278 33.7001 147.64 31.28 147.64ZM23.1121 149.035H23.5961C23.9591 149.035 24.3827 149.096 24.6247 149.278C24.8667 149.46 25.1087 149.703 25.1087 150.127C25.1087 150.491 24.9272 150.795 24.6852 151.037C24.3827 151.28 24.0197 151.28 23.7171 151.28H23.1121V149.035ZM21.66 147.761V155.284H23.1121V152.554H24.0802C24.9272 152.554 25.5322 152.311 25.9557 151.826C26.5608 151.28 26.5608 150.491 26.5608 150.188C26.5608 149.642 26.4398 148.914 25.8347 148.368C25.2902 147.882 24.6852 147.761 23.8381 147.761H21.66ZM16.6988 152.008H17.2433C17.5458 152.008 17.9088 152.069 18.2719 152.19C18.6954 152.372 18.8164 152.797 18.8164 153.04C18.8164 153.343 18.6954 153.707 18.3324 153.889C18.0298 154.132 17.6063 154.132 17.3038 154.132H16.6988V152.008ZM16.6988 148.974H17.1223C17.7273 148.974 18.2719 149.217 18.2719 149.945C18.2719 150.916 17.3643 150.916 17.1223 150.916H16.6988V148.974ZM15.2467 147.761V155.284H17.7273C18.3929 155.284 19.1189 155.224 19.6634 154.678C20.208 154.253 20.329 153.646 20.329 153.161C20.329 152.797 20.208 152.19 19.7844 151.765C19.6029 151.583 19.3004 151.401 18.8164 151.28C18.9979 151.159 19.6029 150.795 19.6029 149.824C19.6029 149.156 19.3609 148.61 18.9374 148.246C18.3324 147.761 17.4853 147.761 17.1223 147.761H15.2467ZM13.7946 147.761H9.68042V155.284H13.7946V154.071H11.1325V152.008H13.7341V150.734H11.1325V149.035H13.7946V147.761Z" fill="#22356F"/>
<path d="M52.8189 148.004C52.8189 148.064 52.8794 148.55 52.9399 149.096C53.0005 149.703 53.0005 150.491 52.8794 151.098C52.6979 151.887 52.4559 152.736 51.8509 153.282C51.1854 153.95 50.1568 154.314 49.2493 154.314C48.3417 154.314 47.3737 154.01 46.7081 153.343C46.1031 152.736 45.9216 151.947 45.9216 151.098C45.9216 150.613 45.9821 150.188 46.1636 149.763C46.4661 148.974 47.1922 148.671 47.9787 148.732C48.4022 148.732 49.1283 148.792 49.4308 149.096C49.7938 149.521 49.7333 150.309 49.5518 150.795C49.5518 150.855 49.4913 151.037 49.2493 151.098C49.0678 151.098 48.7652 151.037 48.5837 151.037C48.5232 150.977 48.4627 150.855 48.4627 150.795C48.4627 150.552 48.5837 150.37 48.5837 150.188C48.5837 150.067 48.5232 150.006 48.4627 150.006C48.2207 149.885 47.6762 149.763 47.4342 150.127C47.3132 150.249 47.1922 150.734 47.2527 151.037C47.3132 151.462 47.5552 151.765 47.7972 151.947C48.0392 152.129 48.4627 152.19 48.8862 152.251C49.4308 152.251 49.9148 152.19 50.2173 151.947C50.8223 151.462 50.9433 150.977 51.0038 150.249C51.1249 149.096 50.5803 148.004 49.4308 147.579C47.6762 146.972 45.5586 147.336 44.8325 149.278C44.2275 150.916 44.409 152.979 45.6796 154.314C47.0711 155.77 49.4913 156.013 51.3064 155.284C52.6374 154.799 53.424 153.828 53.908 152.494C54.2105 151.765 54.271 150.977 54.3315 150.188C54.3315 149.824 54.271 149.46 54.271 149.096C54.271 148.792 54.2105 148.428 54.15 148.186C54.15 148.064 54.029 148.064 53.9685 148.004L53.1215 147.822C53.0005 147.822 52.8189 147.822 52.8189 148.004Z" fill="#22356F"/>
<path d="M111.386 152.251H199.902V153.039H111.386V152.251Z" fill="#22356F"/>
<path fill-rule="evenodd" clip-rule="evenodd" d="M216.783 157.711H219.263V143.453H215.694C212.063 143.453 210.127 145.334 210.127 148.064C210.127 150.249 211.216 151.523 213.031 152.857L209.825 157.711H212.487L216.117 152.311L214.846 151.462C213.334 150.431 212.608 149.642 212.608 147.943C212.608 146.426 213.636 145.395 215.694 145.395H216.783V157.711ZM264.459 157.893C265.609 157.893 266.395 157.711 267 157.226V155.284C266.395 155.709 265.609 155.952 264.58 155.952C262.886 155.952 262.16 154.617 262.16 152.493C262.16 150.249 263.007 149.096 264.64 149.096C265.548 149.096 266.456 149.399 266.94 149.702V147.64C266.456 147.397 265.548 147.154 264.338 147.154C261.252 147.154 259.619 149.399 259.619 152.554C259.619 155.952 261.192 157.893 264.459 157.893ZM249.273 156.983V154.981C248.486 155.527 247.216 155.952 246.066 155.952C244.251 155.952 243.585 155.163 243.525 153.404H249.394V152.129C249.394 148.55 247.821 147.215 245.401 147.215C242.375 147.215 240.984 149.46 240.984 152.554C240.984 156.195 242.738 157.893 245.885 157.893C247.397 157.893 248.547 157.469 249.273 156.983ZM227.008 147.397V151.462H223.74V147.397H221.32V157.711H223.74V153.404H227.008V157.711H229.428V147.397H227.008ZM240.379 155.77H239.29V147.397H232.211V148.246C232.211 150.795 232.09 154.01 231.182 155.77H230.456V160.078H232.695V157.711H238.14V160.078H240.379V155.77ZM257.017 157.711H259.8L255.868 152.129L259.316 147.397H256.836L253.447 152.129V147.397H250.967V157.651H253.447V152.615L257.017 157.711ZM245.34 149.096C246.55 149.096 246.913 150.127 246.913 151.401V151.583H243.525C243.585 149.945 244.13 149.096 245.34 149.096ZM236.87 155.77H233.421C234.086 154.192 234.328 151.401 234.328 149.581V149.278H236.87V155.77Z" fill="#22356F"/>
</svg>
