<svg xmlns="http://www.w3.org/2000/svg" width="50" height="50" viewBox="0 0 50 50" fill="none">
<path fill-rule="evenodd" clip-rule="evenodd" d="M12.1668 20.5341C15.8904 28.6422 22.5164 35.0884 30.7534 38.5813L30.7794 38.5924L32.3707 39.3016C34.397 40.2044 36.7787 39.5632 38.0779 37.7651L40.7328 34.0907C40.895 33.8662 40.8532 33.5541 40.6377 33.3803L36.0028 29.6411C35.7724 29.4552 35.4336 29.4985 35.2573 29.7364L33.4534 32.1705C33.0154 32.7617 32.2242 32.9671 31.5539 32.6637C25.3947 29.8764 20.4453 24.927 17.6579 18.7678C17.3546 18.0975 17.56 17.3063 18.1511 16.8682L20.5853 15.0643C20.8231 14.8881 20.8664 14.5493 20.6805 14.3189L16.9409 9.68335C16.767 9.46791 16.4551 9.42606 16.2306 9.58809L12.5363 12.2551C10.7263 13.5617 10.0889 15.9635 11.0128 17.9957L12.1656 20.5314C12.166 20.5323 12.1664 20.5332 12.1668 20.5341ZM29.5202 41.4528C20.5702 37.6536 13.3715 30.6473 9.3256 21.8354L9.32316 21.8301L8.16795 19.289C6.62815 15.902 7.6905 11.8991 10.7071 9.72134L14.4015 7.05434C15.9726 5.92016 18.1564 6.21308 19.373 7.72119L23.1127 12.3567C24.4139 13.9696 24.1108 16.3412 22.4459 17.575L21.0511 18.6087C23.4072 23.1804 27.1413 26.9145 31.713 29.2706L32.7466 27.8757C33.9805 26.2108 36.3521 25.9078 37.965 27.2089L42.5998 30.9481C44.1084 32.1651 44.401 34.3498 43.2658 35.9209L40.6109 39.5953C38.4456 42.5921 34.4761 43.6608 31.0989 42.1561L29.5202 41.4528Z" fill="black"/>
</svg>