<svg width="34" height="36" viewBox="0 0 34 36" fill="none" xmlns="http://www.w3.org/2000/svg">
<path fill-rule="evenodd" clip-rule="evenodd" d="M7.32133 21.3298C7.39449 21.3589 7.46833 21.3797 7.5421 21.3924C7.62255 21.6164 7.7265 21.9063 7.84777 22.2452C8.14372 23.0723 8.54248 24.191 8.95409 25.358C9.7935 27.738 10.6402 30.1914 10.8272 30.8936C11.0587 31.7617 11.3034 32.352 11.5705 32.7549C11.7087 32.9632 11.8684 33.1452 12.0553 33.2829C12.1494 33.3523 12.2488 33.4092 12.3526 33.4515C12.3572 33.4534 12.3617 33.4552 12.3663 33.457C12.9011 33.6963 13.3888 33.5966 13.6941 33.4748C13.8574 33.4096 13.9896 33.3308 14.0833 33.267C14.131 33.2345 14.1714 33.2041 14.2036 33.1784L14.2112 33.1724L18.9347 29.6817L24.3908 34.6386C24.4713 34.7118 24.5591 34.7731 24.6521 34.8212C25.3076 35.1602 25.9423 35.2784 26.5394 35.1817C27.1354 35.0853 27.6087 34.7885 27.961 34.4545C28.306 34.1274 28.5399 33.7611 28.6855 33.4889C28.7598 33.3499 28.8157 33.227 28.8551 33.1328C28.8749 33.0855 28.8908 33.0447 28.9031 33.0119L28.9188 32.9687L28.9248 32.9518L28.9273 32.9446L28.9284 32.9413L28.9294 32.9382C28.9581 32.8532 28.9801 32.7653 28.9951 32.6756L33.976 2.91683C33.992 2.82166 34 2.72487 34 2.62784C34 1.75637 33.7229 0.927706 33.0714 0.424858C32.5145 -0.00491616 31.8942 -0.0234154 31.5021 0.0118484C31.0792 0.0498877 30.6886 0.173608 30.4265 0.272469C30.2901 0.323918 30.1757 0.373559 30.0932 0.411429C30.0518 0.430462 30.0178 0.446791 29.9925 0.459245L29.9735 0.468726L2.03947 13.4543L2.03585 13.4558C2.01805 13.4635 1.99519 13.4736 1.96803 13.4861C1.91394 13.5111 1.84147 13.5463 1.75681 13.5917C1.59171 13.6804 1.3601 13.819 1.12242 14.0118C0.742718 14.32 -0.130533 15.1639 0.0165115 16.5568C0.13382 17.668 0.776245 18.3505 1.16765 18.6787C1.38257 18.8589 1.58675 18.9878 1.73545 19.0717C1.80443 19.1106 1.94766 19.1795 2.0098 19.2095L2.02548 19.217L7.32133 21.3298ZM30.9511 3.20426L30.9472 3.20627C30.9333 3.21343 30.9193 3.2203 30.9052 3.22686L2.93722 16.2282C2.92261 16.235 2.9079 16.2414 2.8931 16.2476L2.87753 16.2546C2.85964 16.2628 2.82951 16.2773 2.7917 16.2976C2.77026 16.3091 2.74789 16.3217 2.72508 16.3352C2.75642 16.3561 2.78641 16.3743 2.81307 16.3893C2.83865 16.4037 2.85817 16.4136 2.86886 16.4188L8.12121 18.5142C8.21735 18.5526 8.30697 18.6034 8.38923 18.6646L25.7322 6.63381L25.7484 6.62243C25.7611 6.61359 25.7776 6.60222 25.7975 6.5889C25.837 6.56246 25.8912 6.52725 25.9557 6.48835C26.0761 6.41575 26.2687 6.30799 26.4856 6.22853C26.6367 6.17321 27.082 6.01737 27.5635 6.20038C27.8607 6.31333 28.1684 6.55617 28.3685 6.96754C28.4679 7.17191 28.5209 7.37721 28.5466 7.56514C28.6147 7.8612 28.6039 8.15354 28.5506 8.40593C28.4357 8.9496 28.1134 9.37369 27.82 9.69806C27.5688 9.97615 24.3174 13.6914 21.1099 17.3589C19.5103 19.1878 17.9271 20.9987 16.7437 22.3524L15.9665 23.2415L25.7804 32.1576C26.0055 32.2531 26.1385 32.2482 26.2001 32.2383C26.2734 32.2264 26.3334 32.1929 26.3948 32.1348C26.4633 32.0698 26.5233 31.982 26.5681 31.8982L26.57 31.8948L31.4009 3.03226C31.3292 3.05268 31.2567 3.07699 31.1868 3.10335C31.1077 3.1332 31.0425 3.16163 30.9992 3.1815C30.9778 3.19134 30.9623 3.1988 30.954 3.20292L30.9511 3.20426ZM16.8096 27.751L14.8517 25.9722L14.3772 29.5485L16.8096 27.751ZM13.0555 22.4424L15.0026 20.2149C16.186 18.8612 17.7694 17.0501 19.3691 15.221L20.9945 13.3628L10.0974 20.9221L10.1559 21.0855C10.4529 21.9155 10.8534 23.0392 11.2672 24.2124C11.5766 25.0897 11.9001 26.0134 12.1948 26.8686L12.6679 23.3028C12.7135 22.959 12.8552 22.6614 13.0555 22.4424Z" fill="black"/>
</svg>
