<svg width="52" height="34" viewBox="0 0 52 34" fill="none" xmlns="http://www.w3.org/2000/svg">
<path fill-rule="evenodd" clip-rule="evenodd" d="M51.126 27.118C49.9376 24.7069 48.3716 22.5045 46.4884 20.5952C45.8475 19.8448 45.096 19.1042 44.5094 18.5261L44.4274 18.4453C44.1249 18.1471 43.8748 17.8995 43.6702 17.6861C46.2454 14.0794 48.4493 10.2173 50.2477 6.15943L50.3202 5.99571L50.3711 5.82388C50.6074 5.02519 50.8796 3.50642 49.9167 2.13388C48.9214 0.715226 47.3276 0.459378 46.2604 0.459378H41.3505C40.3269 0.412111 39.3134 0.690834 38.4546 1.2575C37.5894 1.82845 36.9275 2.66123 36.5633 3.63473C35.5059 6.17169 34.1828 8.58476 32.6183 10.8336V5.03801C32.6183 4.28884 32.5483 3.03564 31.7519 1.97788C30.7983 0.711407 29.4193 0.459378 28.4622 0.459378H20.6713C19.6676 0.435995 18.6914 0.797506 17.9412 1.47233C17.1729 2.16342 16.7021 3.12877 16.6286 4.16367L16.6216 4.26171V4.36C16.6216 5.42848 17.0419 6.21665 17.3778 6.71233C17.5281 6.93426 17.6889 7.13626 17.7905 7.26386L17.8139 7.29331C17.9223 7.42936 17.9946 7.52016 18.0671 7.61959C18.258 7.88109 18.5325 8.28429 18.6102 9.32765V12.5695C17.2671 10.3455 15.8502 7.38608 14.7842 4.22532L14.7678 4.17681L14.7497 4.12895C14.4838 3.4277 14.0575 2.40736 13.2036 1.62656C12.2061 0.714396 11.0262 0.459378 9.95318 0.459378H4.97144C3.88589 0.459378 2.57722 0.715175 1.60073 1.75274C0.640494 2.77304 0.531738 3.99561 0.531738 4.64566V4.93866L0.593004 5.22509C1.97286 11.6762 4.81606 17.7173 8.89922 22.8762C10.7504 25.8168 13.2588 28.2815 16.2249 30.0728C19.2383 31.8928 22.6378 32.9656 26.1435 33.2029L26.235 33.2091H26.3266C27.9126 33.2091 29.5659 33.0712 30.8092 32.2367C32.4864 31.1109 32.6183 29.3818 32.6183 28.5203V26.0158C33.0486 26.3663 33.5827 26.8381 34.2364 27.4721C35.0267 28.2689 35.656 28.9592 36.1958 29.5619L36.4838 29.8845L36.4855 29.8864C36.9046 30.3565 37.3172 30.8192 37.6928 31.1996C38.165 31.6777 38.747 32.2045 39.4788 32.5937C40.2711 33.0151 41.1027 33.2056 41.986 33.2056H46.9711C48.0214 33.2056 49.5278 32.9555 50.5868 31.7188C51.741 30.3709 51.6528 28.7189 51.2899 27.5318L51.2246 27.3182L51.126 27.118ZM38.6293 27.3505C38.0681 26.7239 37.3914 25.9811 36.5363 25.1198L36.5292 25.1128C33.5661 22.2352 32.1815 21.7338 31.2025 21.7338C30.6818 21.7338 30.1057 21.7927 29.7318 22.2619C29.5553 22.4833 29.4626 22.7504 29.4106 23.0288C29.3586 23.3068 29.3407 23.6331 29.3407 24.0049V28.5203C29.3407 29.0811 29.2492 29.3166 28.9917 29.4894C28.6487 29.7197 27.9156 29.9063 26.345 29.9077C23.3638 29.703 20.4732 28.7893 17.9103 27.2415C15.3422 25.6905 13.1767 23.5471 11.5921 20.9879L11.5748 20.9601L11.5544 20.9345C7.7497 16.1645 5.09851 10.5689 3.80994 4.58992C3.81692 4.30169 3.87892 4.13069 3.97936 4.02397C4.08287 3.91399 4.33366 3.76072 4.97144 3.76072H9.95318C10.5074 3.76072 10.7942 3.88214 11.0006 4.07089C11.2346 4.28487 11.4376 4.64826 11.6841 5.29712C12.9069 8.91973 14.5605 12.3075 16.1263 14.7986C16.9089 16.0437 17.6792 17.08 18.3731 17.8123C18.7196 18.1779 19.0593 18.4809 19.3835 18.6963C19.6973 18.9047 20.0531 19.0691 20.4189 19.0691C20.612 19.0691 20.8378 19.0491 21.0552 18.9522C21.2891 18.8479 21.4707 18.674 21.5989 18.4411C21.8256 18.029 21.8877 17.4187 21.8877 16.6191V9.21596L21.8867 9.19859C21.7734 7.3975 21.2335 6.38438 20.7079 5.66414C20.5927 5.50629 20.4791 5.36372 20.3796 5.23895L20.3524 5.20476C20.2433 5.06765 20.1564 4.95685 20.085 4.8515C19.9543 4.65846 19.9036 4.52387 19.8994 4.37965C19.9165 4.20846 19.9966 4.04961 20.1243 3.93469C20.257 3.8154 20.4305 3.7533 20.6081 3.76072H28.4622C28.9124 3.76072 29.0641 3.87138 29.1404 3.97275C29.2481 4.11586 29.3407 4.41347 29.3407 5.03801V15.005C29.3407 16.1889 29.8825 16.9904 30.6694 16.9904C31.5748 16.9904 32.2275 16.437 33.3689 15.2874L33.3879 15.2682L33.405 15.2472C35.9632 12.1048 38.0541 8.60409 39.6103 4.85477L39.6203 4.82665C39.7373 4.49535 39.9587 4.21171 40.2507 4.01901C40.5427 3.82632 40.8893 3.73514 41.2376 3.75941L41.2564 3.76072H46.2604C46.9429 3.76072 47.1674 3.93566 47.24 4.03912C47.3172 4.1492 47.371 4.38511 47.2397 4.84776C45.4456 8.88949 43.2269 12.7259 40.6227 16.2926L40.6063 16.3179C40.3534 16.7073 40.0761 17.1382 40.0359 17.633C39.9928 18.1644 40.2212 18.6474 40.6205 19.1651C40.9115 19.5986 41.5118 20.1904 42.1207 20.7907L42.1781 20.8473C42.8166 21.4767 43.5082 22.1586 44.0635 22.8187L44.0783 22.8363L44.0945 22.8526C45.7496 24.5155 47.1259 26.4379 48.1698 28.5446C48.3363 29.1182 48.2344 29.4114 48.1049 29.5626C47.9533 29.7396 47.6139 29.9043 46.9711 29.9043H41.986C41.5968 29.9043 41.2962 29.827 41.0092 29.6744C40.71 29.5152 40.4023 29.2621 40.0165 28.8714C39.7058 28.5567 39.3662 28.176 38.952 27.7118C38.8493 27.5966 38.7419 27.4762 38.6293 27.3505Z" fill="black"/>
</svg>
